<svg width="182" height="194" viewBox="0 0 182 194" fill="none" xmlns="http://www.w3.org/2000/svg">
<path d="M98.0443 145.618L98.2499 145.163L98.0444 145.618C106.57 149.463 116.706 154.728 126.692 161.556C124.595 164.666 122.081 167.514 119.185 170.022C119.122 170.077 119.057 170.133 118.995 170.187L119.32 170.567L118.995 170.187C102.761 184.082 79.2784 183.221 64.5323 168.88C72.7037 167.01 80.6223 163.145 87.5347 157.23L87.5357 157.229L87.7834 157.016L87.7846 157.015C91.6979 153.626 95.0694 149.749 97.854 145.532L98.0443 145.618ZM203.305 60.767L203.306 60.7661C209.089 55.7579 213.645 49.6419 216.752 42.846C220.617 49.0578 222.347 56.3944 221.648 63.9274C220.814 72.9206 216.619 81.1054 209.837 86.979L209.837 86.9792C209.787 87.0223 209.735 87.0669 209.683 87.1111C206.4 89.9207 202.749 91.9736 198.934 93.2987C195.146 85.4871 192.331 78.4579 190.439 73.2965L189.97 73.4685L190.439 73.2964C189.989 72.0675 189.538 70.7932 189.09 69.501C194.081 67.4674 198.815 64.6111 203.076 60.9646L203.077 60.9637L203.305 60.767ZM160.929 75.4702L160.93 75.4687C161.979 74.5603 162.984 73.6095 163.945 72.6172C167.728 73.1482 171.556 73.2161 175.348 72.8422C175.956 74.6272 176.603 76.4665 177.296 78.3566C183.504 95.2976 194.777 119.829 212.178 139.587C213.117 140.654 213.594 142.072 213.495 143.516C213.397 144.96 212.731 146.302 211.655 147.233C211.655 147.233 211.654 147.233 211.654 147.234L198.398 158.578L180.196 136.357L180.195 136.355C177.666 133.294 173.186 132.926 170.188 135.539L170.517 135.916L170.188 135.539C167.203 138.143 166.827 142.723 169.349 145.777C169.349 145.777 169.35 145.777 169.35 145.777L187.485 167.918L173.638 179.768C172.566 180.686 171.184 181.121 169.804 180.978C168.415 180.835 167.142 180.119 166.278 178.989C148.789 156.115 123.075 141.232 104.121 132.637C106.043 126.934 107.044 120.936 107.025 114.891C111.003 111.186 114.299 106.839 116.783 102.045C118.428 101.438 120.035 100.732 121.605 99.9514L150.748 111.996L151.864 112.457L151.401 111.342L140.732 85.6464C147.988 84.0717 154.865 80.6606 160.717 75.6517L160.718 75.6512L160.929 75.4702ZM193.92 49.5256L194.245 49.9055L193.92 49.5256C183.832 58.1596 170.227 60.548 158.725 56.2519L158.338 56.1073L158.123 56.4604C156.369 59.3431 154.168 61.9527 151.588 64.1873L151.513 64.2514L151.439 64.3151C145.55 69.3555 138.31 71.9982 130.983 71.9011L130.688 71.8971L130.542 72.1546C128.505 75.7498 125.854 78.9982 122.721 81.7113L122.72 81.7117C118.063 85.756 112.437 88.4933 106.563 89.6397L106.272 89.6964L106.182 89.9787C104.377 95.6455 101.021 100.762 96.4422 104.727C95.1382 105.85 93.7602 106.871 92.3186 107.765L92.0316 107.944L92.0896 108.276C94.4552 121.843 89.3341 136.343 78.3797 145.83C78.3554 145.851 78.3312 145.872 78.3071 145.893C78.269 145.926 78.2312 145.958 78.1935 145.991C61.84 159.986 38.0875 158.516 25.1238 142.741C15.2107 130.678 14.2118 113.499 21.9789 99.5508L22.1786 99.1922L21.8658 98.9265C20.6531 97.896 19.5266 96.7494 18.4914 95.4899C13.6623 89.6133 11.4959 82.0541 12.4015 74.1953C13.2896 66.4899 17.0422 59.4185 22.9717 54.2825C24.3235 53.1169 25.7398 52.0809 27.2239 51.1829L27.603 50.9535L27.4209 50.5496C23.8741 42.6832 22.6587 33.7827 23.9954 24.792C25.7412 13.0484 31.7052 2.24641 40.7918 -5.62226L40.793 -5.62331C40.8652 -5.68624 40.9389 -5.74932 41.0147 -5.81412L40.6896 -6.194L41.0147 -5.81412C49.5208 -13.0938 60.1323 -17.2333 70.9247 -17.4846C79.3455 -17.6806 87.4789 -15.5186 94.4388 -11.3168L94.8135 -11.0906L95.0873 -11.432C96.776 -13.5382 98.6553 -15.4901 100.712 -17.2708C100.779 -17.3291 100.847 -17.3874 100.913 -17.4447C118.527 -32.5183 144.102 -30.9467 158.057 -13.9666C159.022 -12.7917 159.917 -11.5594 160.737 -10.2757L160.958 -9.92879L161.341 -10.0795C166.876 -12.258 172.837 -13.0325 178.647 -12.2758C186.909 -11.1996 194.346 -7.09024 199.592 -0.705578C205.447 6.41771 208.071 15.5877 206.972 25.1238L207.469 25.181L206.972 25.1238C205.891 34.5064 201.316 43.1217 194.088 49.3812L194.085 49.3832C194.032 49.4302 193.977 49.4769 193.92 49.5256Z" fill="#CBF265" stroke="#C7E96F"/>
</svg>
