<svg width="24" height="27" viewBox="0 0 24 27" fill="none" xmlns="http://www.w3.org/2000/svg">
<g filter="url(#filter0_i_81_12829)">
<path d="M8.70104 26.15C7.54104 26.15 6.23104 26.05 4.77104 25.85C3.97104 25.75 3.42104 25.54 3.12104 25.22C2.82104 24.9 2.69104 24.38 2.73104 23.66C2.87104 21.68 3.20104 19.24 3.72104 16.34C4.24104 13.42 4.87104 10.61 5.61104 7.90995C5.75104 7.40995 6.03104 7.05995 6.45104 6.85995C6.87104 6.65995 7.42104 6.55995 8.10104 6.55995C9.32104 6.55995 9.93104 6.89995 9.93104 7.57995C9.93104 7.85995 9.87104 8.17995 9.75104 8.53995C9.23104 10.14 8.71104 12.29 8.19104 14.99C7.67104 17.67 7.30104 20.2299 7.08104 22.67C7.68104 22.7299 8.36104 22.76 9.12104 22.76C12.621 22.76 15.231 21.7 16.951 19.58C18.691 17.4599 19.561 14.63 19.561 11.09C19.561 8.70995 18.881 6.86995 17.521 5.56995C16.161 4.26995 14.241 3.61995 11.761 3.61995C10.161 3.61995 8.57104 3.86995 6.99104 4.36995C5.43104 4.86995 4.02104 5.52995 2.76104 6.34995C2.50104 6.52995 2.22104 6.61995 1.92104 6.61995C1.58104 6.61995 1.31104 6.47995 1.11104 6.19995C0.911035 5.89995 0.811035 5.53995 0.811035 5.11995C0.811035 4.63995 0.891035 4.24995 1.05104 3.94995C1.21104 3.62995 1.48104 3.33995 1.86104 3.07995C3.24104 2.13995 4.86104 1.42995 6.72104 0.94995C8.58104 0.449951 10.371 0.199951 12.091 0.199951C14.531 0.199951 16.641 0.629951 18.421 1.48995C20.201 2.32995 21.571 3.56995 22.531 5.20995C23.491 6.84995 23.971 8.82995 23.971 11.15C23.971 14.17 23.371 16.81 22.171 19.07C20.971 21.31 19.221 23.05 16.921 24.29C14.621 25.53 11.881 26.15 8.70104 26.15Z" fill="#8C33FF"/>
</g>
<defs>
<filter id="filter0_i_81_12829" x="0.811035" y="0.199951" width="23.1599" height="29.95" filterUnits="userSpaceOnUse" color-interpolation-filters="sRGB">
<feFlood flood-opacity="0" result="BackgroundImageFix"/>
<feBlend mode="normal" in="SourceGraphic" in2="BackgroundImageFix" result="shape"/>
<feColorMatrix in="SourceAlpha" type="matrix" values="0 0 0 0 0 0 0 0 0 0 0 0 0 0 0 0 0 0 127 0" result="hardAlpha"/>
<feOffset dy="10"/>
<feGaussianBlur stdDeviation="2"/>
<feComposite in2="hardAlpha" operator="arithmetic" k2="-1" k3="1"/>
<feColorMatrix type="matrix" values="0 0 0 0 0.414416 0 0 0 0 0.0676215 0 0 0 0 0.854167 0 0 0 0.4 0"/>
<feBlend mode="normal" in2="shape" result="effect1_innerShadow_81_12829"/>
</filter>
</defs>
</svg>
