<svg width="198" height="198" viewBox="0 0 198 198" fill="none" xmlns="http://www.w3.org/2000/svg">
<rect x="0.5" y="0.5" width="197" height="197" rx="16.5" stroke="white" stroke-opacity="0.3" stroke-dasharray="2 2"/>
<path d="M34.2 31.8H37.8C38.1183 31.8 38.4235 31.9264 38.6485 32.1515C38.8736 32.3765 39 32.6817 39 33C39 33.3183 38.8736 33.6235 38.6485 33.8485C38.4235 34.0736 38.1183 34.2 37.8 34.2H34.2V37.8C34.2 38.1183 34.0736 38.4235 33.8485 38.6485C33.6235 38.8736 33.3183 39 33 39C32.6817 39 32.3765 38.8736 32.1515 38.6485C31.9264 38.4235 31.8 38.1183 31.8 37.8V34.2H28.2C27.8817 34.2 27.5765 34.0736 27.3515 33.8485C27.1264 33.6235 27 33.3183 27 33C27 32.6817 27.1264 32.3765 27.3515 32.1515C27.5765 31.9264 27.8817 31.8 28.2 31.8H31.8V28.2C31.8 27.8817 31.9264 27.5765 32.1515 27.3515C32.3765 27.1264 32.6817 27 33 27C33.3183 27 33.6235 27.1264 33.8485 27.3515C34.0736 27.5765 34.2 27.8817 34.2 28.2V31.8Z" fill="white"/>
<path d="M77.2037 26.6999C77.2037 27.4199 78.4037 27.3999 79.0037 27.2999C79.0412 27.3999 79.2137 28.02 79.6037 29.7C80.5037 34.8 78.7037 35.1 77.5037 35.4C76.3037 35.7 75.4037 33 76.3037 33C77.0237 33 77.6037 32.4 77.8037 32.1C78.1037 30.6 78.1037 29.7 73.9037 29.7C69.1037 29.7 69.4037 30.6 68.8037 30.9C68.3237 31.14 68.8037 31.8 69.1037 32.1C68.9037 32.5 68.2037 33.6 69.1037 33.9C70.9037 33.3 72.1037 33.3 73.6037 34.2C74.8037 34.92 74.9037 36.9 74.8037 37.8H79.3037C79.2037 37.4 79.1355 36.0045 80.2037 34.8C81.7036 33.1087 82.7001 33.6 84.2001 33.6C84.5001 30.3 81.7037 28.2 80.8037 27.6C81.7637 27.6 81.4037 26.6 81.1037 26.1C80.7037 25.6 79.7237 24.66 79.0037 24.9C78.2837 25.14 78.5037 25.9999 78.7037 26.3999C78.2037 26.1999 77.2037 25.9799 77.2037 26.6999Z" fill="white"/>
<circle cx="82.9036" cy="37.2" r="2.4" fill="white"/>
<circle cx="71.5036" cy="37.2" r="2.4" fill="white"/>
<path fill-rule="evenodd" clip-rule="evenodd" d="M115.6 27.6C115.6 26.2745 116.675 25.2 118 25.2H124C125.325 25.2 126.4 26.2745 126.4 27.6V37.8C126.4 39.1255 125.325 40.2 124 40.2H118C116.675 40.2 115.6 39.1255 115.6 37.8V27.6ZM117.4 28.2C117.4 27.5373 117.937 27 118.6 27H123.4C124.063 27 124.6 27.5373 124.6 28.2V34.2C124.6 34.8627 124.063 35.4 123.4 35.4H118.6C117.937 35.4 117.4 34.8627 117.4 34.2V28.2ZM121 39C121.663 39 122.2 38.4627 122.2 37.8C122.2 37.1373 121.663 36.6 121 36.6C120.337 36.6 119.8 37.1373 119.8 37.8C119.8 38.4627 120.337 39 121 39Z" fill="white"/>
<path d="M119.2 31.5L121 28.2V30.3H122.5L121 33.6V31.5H119.2Z" fill="white"/>
<path fill-rule="evenodd" clip-rule="evenodd" d="M162.667 37.3333C162 37.3333 160 35.3333 160 34.6667C160 34.4447 160.222 34 160.667 33.3333L158 32.6667C158 32.6667 159 31.3738 159.667 31.0404C160.333 30.7071 162 31.3333 162 31.3333C164.667 27.3333 168.667 26 171.333 26C171.333 28.6667 170 32.6667 166 35.3333C166 35.3333 166.293 37.3333 166 38C165.707 38.6667 164.667 39.3333 164.667 39.3333L164 36.6667C163.333 37.1113 162.889 37.3333 162.667 37.3333ZM167 31.3333C167.265 31.3333 167.52 31.228 167.707 31.0404C167.895 30.8529 168 30.5985 168 30.3333C168 30.0681 167.895 29.8138 167.707 29.6262C167.52 29.4387 167.265 29.3333 167 29.3333C166.735 29.3333 166.48 29.4387 166.293 29.6262C166.105 29.8138 166 30.0681 166 30.3333C166 30.5985 166.105 30.8529 166.293 31.0404C166.48 31.228 166.735 31.3333 167 31.3333ZM159.333 35.3333L160 36.3333C159.555 36.778 159.333 37.3333 159.333 38C160 38 160.555 37.778 161 37.3333L162 38C161.111 38.8887 159.778 39.3333 158 39.3333C158 37.5553 158.445 36.222 159.333 35.3333Z" fill="white"/>
<circle cx="37.8347" cy="80.6" r="1.8" fill="white"/>
<circle cx="28.2347" cy="80.6" r="1.8" fill="white"/>
<path fill-rule="evenodd" clip-rule="evenodd" d="M25.5345 80.3C24.3344 80.6 23.4345 79.7 23.4345 79.1C23.4345 78.8618 23.4258 78.6197 23.4171 78.3792C23.3859 77.5142 23.3554 76.6697 23.7345 76.1C24.1063 75.5412 25.2739 75.2891 25.5344 75.3325C25.9345 74.0325 27.1545 71.3725 28.8345 71.1325C30.5145 70.8925 33.3345 71.0325 34.5345 71.1325C35.1345 71.2325 36.6945 72.2125 38.1345 75.3325C39.9345 75.3326 42.0345 75.6326 42.3345 76.8326C42.5745 77.7926 42.6345 78.6326 42.3345 79.5326C42.0345 80.1326 41.4945 80.4325 40.5345 80.4325L40.5207 80.3774C40.2249 79.1922 39.9024 77.9 37.8345 77.9C35.6745 77.9 35.1345 79.9 35.1345 80.9H30.9345C31.0345 79.9 30.6345 77.9 28.2345 77.9C25.8345 77.9 25.5345 79.4 25.5345 80.3ZM31.2001 74.9V72.5H29.3655C28.1974 72.5 27.8201 74.016 27.6164 74.8345L27.6001 74.9H31.2001ZM32.4347 72.5V74.9H36.0347C35.8347 74.1 35.2547 72.5 34.5347 72.5H32.4347Z" fill="white"/>
<path fill-rule="evenodd" clip-rule="evenodd" d="M77.016 67.4C75.816 67.4 75.116 68.2 74.916 68.6C73.316 72.4 70.056 80.72 69.816 83.6C69.576 86.48 72.116 86.6 73.416 86.3L77.016 84.5L80.616 86.3C81.916 86.6 84.456 86.48 84.216 83.6C83.976 80.72 80.716 72.4 79.116 68.6C78.916 68.2 78.216 67.4 77.016 67.4Z" fill="white"/>
<path d="M83.6822 77.8825L82.3345 74.064C82.2115 73.7157 82.4302 73.3407 82.7991 73.3219C84.0009 73.2606 85.7093 73.5215 86.3001 74.9C86.9058 76.3132 85.5725 77.5425 84.479 78.1949C84.1767 78.3752 83.7993 78.2144 83.6822 77.8825Z" fill="white"/>
<path d="M70.1695 77.8825L71.5172 74.064C71.6401 73.7157 71.4215 73.3407 71.0526 73.3219C69.8507 73.2606 68.1423 73.5215 67.5516 74.9C66.9459 76.3132 68.2792 77.5425 69.3727 78.1949C69.675 78.3752 70.0523 78.2144 70.1695 77.8825Z" fill="white"/>
<path d="M113.2 72.5V76.7C113.2 77.9 114.1 79.1 115.6 80L115.9 83C115.9 83.3 116.08 83.9 116.8 83.9C117.52 83.9 117.7 83.3 117.7 83C117.8 82.5 118 81.2 118 80C119.8 79.4 120.1 78.2 120.4 76.7C120.64 75.5 120.4 72.8 120.1 71.6C120.035 71.3402 119.68 71 119.2 71C118.72 71 118.6 71.6 118.6 71.9C118.6 72.2 118.9 74 118.9 74.6C118.9 75.2 118.9 75.5 118.3 75.5C117.58 75.5 117.7 74.9 117.7 74.6V71.6C117.7 71.2 117.52 70.4 116.8 70.4C116.08 70.4 115.9 71.2 115.9 71.6V74.6C115.9 74.9 116.02 75.5 115.3 75.5C114.58 75.5 114.7 74.9 114.7 74.6C114.7 74.3 115 73.1 115 72.5C115 71.9 114.82 71 114.1 71C113.38 71 113.2 72 113.2 72.5Z" fill="white"/>
<path d="M125.5 70.4C123.58 70.4 122.5 73.6 122.2 75.2C121.9 77 122.2 77.6 122.5 78.2C122.74 78.68 123.8 79.6 124.3 80L124.6 83C124.6 83.3 124.78 83.9 125.5 83.9C126.22 83.9 126.4 83.3 126.4 83L126.7 80L128.5 78.2C129.22 77.48 129 75.9 128.8 75.2C128.5 73.6 127.42 70.4 125.5 70.4Z" fill="white"/>
<circle cx="161.7" cy="73.7" r="2.7" fill="white"/>
<circle cx="168.3" cy="73.7" r="2.7" fill="white"/>
<circle cx="168.3" cy="80.3" r="2.7" fill="white"/>
<circle cx="161.7" cy="80.3" r="2.7" fill="white"/>
<path d="M36.54 120.29L30.88 114.64C30.787 114.546 30.6764 114.472 30.5546 114.421C30.4327 114.37 30.302 114.344 30.17 114.344C30.038 114.344 29.9073 114.37 29.7854 114.421C29.6636 114.472 29.553 114.546 29.46 114.64C29.2738 114.827 29.1692 115.081 29.1692 115.345C29.1692 115.609 29.2738 115.863 29.46 116.05L34.41 121.05L29.46 126C29.2738 126.187 29.1692 126.441 29.1692 126.705C29.1692 126.969 29.2738 127.223 29.46 127.41C29.5526 127.504 29.6631 127.58 29.7849 127.631C29.9068 127.683 30.0377 127.709 30.17 127.71C30.3023 127.709 30.4332 127.683 30.5551 127.631C30.677 127.58 30.7874 127.504 30.88 127.41L36.54 121.76C36.6415 121.666 36.7225 121.553 36.7779 121.426C36.8333 121.3 36.8619 121.163 36.8619 121.025C36.8619 120.887 36.8333 120.75 36.7779 120.624C36.7225 120.497 36.6415 120.384 36.54 120.29Z" fill="white"/>
<path fill-rule="evenodd" clip-rule="evenodd" d="M76.9249 113.8C75.4249 113.8 70.7591 116.832 70.625 117.1C70.325 117.7 70.325 122.8 70.625 123.7C70.8371 124.336 75.725 127.6 76.625 127.6C77.825 127.6 83.2249 124.6 83.2249 123.7C83.2249 123.479 83.2612 123.003 83.3071 122.403C83.4475 120.563 83.6774 117.552 83.2249 117.1C82.9798 116.855 82.1339 116.259 81.1167 115.64C79.0667 116.661 75.5089 118.446 75.3067 119.015C75.2001 119.315 75.2001 121 75.2001 122.2L73.8067 120.4L72.8001 121C72.8001 120 72.8001 118.6 72.9067 117.7C72.9636 117.219 76.6595 115.325 78.7762 114.373C78.0333 114.031 77.3636 113.8 76.9249 113.8Z" fill="white"/>
<path d="M127.842 126.063L125.205 123.787C126.079 122.527 126.438 120.979 126.206 119.462C125.974 117.945 125.17 116.574 123.959 115.632C122.748 114.69 121.222 114.247 119.694 114.396C118.167 114.544 116.755 115.272 115.748 116.43C114.741 117.587 114.215 119.087 114.28 120.62C114.345 122.153 114.994 123.603 116.095 124.672C117.196 125.741 118.665 126.348 120.199 126.367C121.734 126.386 123.217 125.817 124.345 124.776L126.962 127.053C127.028 127.111 127.105 127.156 127.189 127.184C127.272 127.212 127.36 127.223 127.448 127.217C127.536 127.211 127.622 127.188 127.7 127.148C127.779 127.109 127.849 127.054 127.907 126.988C128.018 126.855 128.073 126.685 128.061 126.512C128.049 126.34 127.971 126.179 127.842 126.063ZM120.614 125.036C119.693 125.1 118.774 124.89 117.973 124.431C117.171 123.973 116.524 123.287 116.112 122.461C115.701 121.635 115.544 120.706 115.66 119.79C115.777 118.874 116.163 118.014 116.769 117.318C117.374 116.621 118.173 116.12 119.063 115.878C119.954 115.635 120.897 115.662 121.772 115.955C122.647 116.249 123.415 116.795 123.98 117.525C124.545 118.255 124.881 119.136 124.945 120.056C125.031 121.291 124.623 122.509 123.81 123.443C122.998 124.377 121.848 124.95 120.614 125.036Z" fill="white"/>
<path d="M170.714 120.285L165.714 115.285C165.619 115.194 165.507 115.123 165.384 115.075C165.141 114.975 164.868 114.975 164.624 115.075C164.501 115.123 164.389 115.194 164.294 115.285L159.294 120.285C159.201 120.378 159.127 120.489 159.076 120.611C159.026 120.733 159 120.863 159 120.995C159 121.261 159.106 121.517 159.294 121.705C159.482 121.893 159.738 121.999 160.004 121.999C160.27 121.999 160.526 121.893 160.714 121.705L164.004 118.405V125.995C164.004 126.26 164.109 126.515 164.297 126.702C164.485 126.89 164.739 126.995 165.004 126.995C165.269 126.995 165.524 126.89 165.711 126.702C165.899 126.515 166.004 126.26 166.004 125.995V118.405L169.294 121.705C169.387 121.799 169.498 121.873 169.62 121.924C169.741 121.975 169.872 122.001 170.004 122.001C170.136 122.001 170.267 121.975 170.389 121.924C170.511 121.873 170.621 121.799 170.714 121.705C170.808 121.612 170.882 121.501 170.933 121.38C170.984 121.258 171.01 121.127 171.01 120.995C171.01 120.863 170.984 120.732 170.933 120.61C170.882 120.489 170.808 120.378 170.714 120.285Z" fill="white"/>
<path fill-rule="evenodd" clip-rule="evenodd" d="M26.5387 158.753C26.0587 159.473 26.9387 160.053 27.4387 160.253C28.0213 160.59 28.1903 162.252 28.4742 165.046L28.5 165.3C28.6876 167.143 30 167.9 30.6 168C30.8397 168.012 31.1179 168.028 31.4235 168.045L31.4237 168.045C33.6682 168.174 37.3938 168.387 38.2387 167.753C39.2356 167.005 39.6114 164.809 39.882 163.226L39.882 163.226C39.9372 162.904 39.9879 162.607 40.0387 162.353C40.2787 161.153 39.5387 160.853 39.1387 160.853C36.1387 160.753 29.9587 160.553 29.2387 160.553C29.2387 158.753 27.1387 157.853 26.5387 158.753ZM32.539 162C32.8703 162 33.139 162.269 33.139 162.6V165.6C33.139 165.931 32.8703 166.2 32.539 166.2C32.2076 166.2 31.939 165.931 31.939 165.6V162.6C31.939 162.269 32.2076 162 32.539 162ZM35.839 162.6C35.839 162.269 35.5703 162 35.239 162C34.9076 162 34.639 162.269 34.639 162.6V165.6C34.639 165.931 34.9076 166.2 35.239 166.2C35.5703 166.2 35.839 165.931 35.839 165.6V162.6Z" fill="white"/>
<circle cx="36.439" cy="170.4" r="1.2" fill="white"/>
<circle cx="31.639" cy="170.4" r="1.2" fill="white"/>
</svg>
